<?xml version="1.0" encoding="UTF-8" standalone="no"?>
<svg
   version="1.1"
   id="Layer_1"
   x="0px"
   y="0px"
   width="1656px"
   height="497px"
   viewBox="0 0 1656 497"
   enable-background="new 0 0 1656 497"
   xml:space="preserve"
   sodipodi:docname="KongLoaderBanner.svg"
   inkscape:version="1.4.3 (0d15f75042, 2025-12-25)"
   xmlns:inkscape="http://www.inkscape.org/namespaces/inkscape"
   xmlns:sodipodi="http://sodipodi.sourceforge.net/DTD/sodipodi-0.dtd"
   xmlns="http://www.w3.org/2000/svg"
   xmlns:svg="http://www.w3.org/2000/svg"><defs
   id="defs1" /><sodipodi:namedview
   id="namedview1"
   pagecolor="#ffffff"
   bordercolor="#000000"
   borderopacity="0.25"
   inkscape:showpageshadow="2"
   inkscape:pageopacity="0.0"
   inkscape:pagecheckerboard="0"
   inkscape:deskcolor="#d1d1d1"
   showgrid="false"
   inkscape:zoom="0.57046779"
   inkscape:cx="780.06157"
   inkscape:cy="452.26042"
   inkscape:window-width="1920"
   inkscape:window-height="1011"
   inkscape:window-x="0"
   inkscape:window-y="0"
   inkscape:window-maximized="1"
   inkscape:current-layer="Layer_1" />  <rect
   style="display:inline;fill:#222226;stroke-width:1.33827;fill-opacity:1"
   id="rect2"
   width="1656"
   height="497"
   x="0"
   y="0"
   rx="40"
   ry="40" />
<style
   type="text/css"
   id="style1">
	.st0{fill-rule:evenodd;clip-rule:evenodd;fill:#89BD24;}
	.st1{fill-rule:evenodd;clip-rule:evenodd;fill:#FFFFFF;}
</style><g
   id="g1"
   transform="translate(572.05151,152.4358)"
   style="display:inline"><path
     class="st0"
     d="m 323.3,106.1 c 0.1,-10.3 0.2,-20.6 0.2,-31 16.1,0.1 32.2,0.2 48.2,0.2 0.1,10.2 0.2,20.5 0.2,30.7 9,0.1 17.9,0.2 26.9,0.2 0,13.5 0,27 0,40.6 -9,0.1 -18.1,0.2 -27.1,0.2 0,11.5 0,23 0,34.6 -16.7,-0.1 -33.4,-0.2 -50.2,-0.2 0,-0.1 0,-0.2 0,-0.2 0,-11.4 0,-22.9 0,-34.3 -32,0 -64,0 -96,0 0,-11.2 0,-22.4 0,-33.6 C 252.8,75.5 280,37.8 307.2,0 c 17.7,0.1 35.4,0.2 53,0.2 -17.7,25.6 -35.5,51.2 -53.2,76.8 -11.6,16.7 -20,28.6 -20.2,29.3 12.2,-0.1 24.3,-0.1 36.5,-0.2 z"
     id="path1"
     style="display:inline;fill:#f5ce64;fill-opacity:1" /><path
     class="st1"
     d="m 0,30.2 c 14.3,0 28.6,0 43,0 0,42.8 0,85.6 0,128.4 -14.3,0 -28.6,0 -43,0 C 0,115.8 0,73 0,30.2 Z"
     id="path2" /><path
     class="st1"
     d="m 43.7,30.2 c 14.7,0.1 29.4,0.2 44.2,0.2 7.7,24.9 15.4,49.8 23,74.6 0.1,0 0.2,0 0.2,0 8.2,-25 16.3,-49.9 24.5,-74.9 13.3,0.1 26.6,0.2 39.8,0.2 12.5,40.4 23.2,75.2 23.5,75.6 8.1,-25.3 16.2,-50.6 24.2,-75.8 13.8,0 27.5,0 41.3,0 0,0.1 0,0.2 0,0.2 -3.2,9.6 -6.4,19.2 -9.6,28.8 -12.2,16.8 -24.3,33.6 -36.5,50.4 0,13.6 0,27.2 0,40.8 2.1,2.2 3.7,3.6 3.7,3.6 0,0 1.1,0 1.6,0 -0.5,1.5 -1,3 -1.4,4.6 -15.3,0 -30.6,0 -45.8,0 -7.4,-23.8 -14.7,-47.7 -22.1,-71.5 -7.5,23.8 -15,47.7 -22.6,71.5 C 116.3,158.4 101,158.3 85.6,158.3 71.7,115.7 57.7,73 43.7,30.2 Z"
     id="path3" /><path
     class="st1"
     d="m 379,158.6 c 0,-1.5 0,-3 0,-4.6 7.8,0 15.7,0 23.5,0 1.2,-1.3 2.4,-2.6 3.6,-3.8 0,-14 0,-28 0,-42 3.5,-4.9 7,-9.8 10.6,-14.6 -15.2,-21.1 -30.4,-42.2 -45.6,-63.4 16,0 32,0 48,0 7.6,11 15.2,21.9 22.8,32.9 0.1,0 0.2,0 0.2,0 7.4,-11 14.9,-21.9 22.3,-32.9 15.4,0 30.7,0 46.1,0 -26.4,36.1 -45.5,62.1 -45.6,62.6 16.1,21.9 32.2,43.8 48.2,65.8 -16.4,0 -32.8,0 -49.2,0 -7.7,-11.6 -15.4,-23.2 -23,-34.8 -0.2,0.1 -0.3,0.2 -0.5,0.2 -7.4,11.5 -14.9,23 -22.3,34.6 -13.1,0 -26.1,0 -39.1,0 z"
     id="path4" /></g></svg>
